<?xml version="1.0" encoding="UTF-8"?>
<svg id="a" data-name="Слой 1" xmlns="http://www.w3.org/2000/svg" width="33mm" height="33mm" viewBox="0 0 93.5433 93.5433">
  <path d="M87.7803,39.2434c-4.1936-2.9628-10.3007-6.8875-18.132-10.6201-6.8746-3.2767-13.2597-5.6999-18.8579-7.4271-1.4213-.3268-3.2453-.6159-5.3734-.6378-2.1599-.0223-4.0136,.2369-5.4546,.5412-6.4518,1.0813-12.5647,4.2074-22.0888,9.0779-6.6314,3.3913-11.7985,6.7236-15.1963,9.066l20.6359,11.5699c-1.18-1.9283-2.36-3.8566-3.5401-5.785,3.5052,1.9899,11.0311,5.724,21.2661,6.5711,1.2667,.1046,2.6335,.1701,4.0888,.1737,1.6018,.0039,3.0983-.0676,4.4744-.1849h-.0308c10.033-.8559,17.4443-4.4756,21.1128-6.5599l-3.4537,5.785c6.8498-3.8566,13.6997-7.7133,20.5495-11.5699Zm-41.8804,7.858c-15.6422,.4481-25.7065-6.5226-28.199-8.635,1.6241-2.3627,6.0894-5.9548,12.0316-9.1201,4.7647-2.538,8.0852-2.8592,10.7766-3.0987-.1946,2.4556-.1276,4.5702,.5907,8.3334,.9342,4.8952,2.7237,8.673,4.1444,11.1382,1.4922-2.4356,3.4802-6.3709,4.4035-11.5699,.6385-3.5951,.674-5.524,.4418-7.8666,2.7297,.2861,6.1196,.629,12.1573,3.1879,5.766,2.4438,8.8293,6.6137,10.4543,8.9095-2.6917,2.2991-12.5914,8.3143-26.8012,8.7214Zm4.9918-26.0611c-1.6813-.3039-3.3829-.4647-5.1994-.4808-1.8947-.0168-3.6869,.126-5.4537,.4221,0,0-.613-5.2779-.8054-6.9818,1.5822,.3638,3.5412,.6648,5.948,.6686,0,0,4.6276-.3011,6.2263-.6686-.1535,1.6981-.7158,7.0405-.7158,7.0405Zm-1.3324,30.7331c-1.0776,.0919-2.1854,.152-3.3221,.1748-1.8159,.0365-3.5648-.0248-5.2411-.1636l1.3989,16.9141-9.9726-3.2379,12.7787,14.9804,12.7787-14.9804-9.8862,3.2379c.4317-5.123,1.4658-16.9253,1.4658-16.9253Z" style="fill: #1d1d1b;"/>
</svg>